<?xml version="1.0" standalone="no"?>
<!DOCTYPE svg PUBLIC "-//W3C//DTD SVG 20010904//EN"
 "http://www.w3.org/TR/2001/REC-SVG-20010904/DTD/svg10.dtd">
<svg version="1.0" xmlns="http://www.w3.org/2000/svg"
 width="752.000000pt" height="752.000000pt" viewBox="0 0 752.000000 752.000000"
 preserveAspectRatio="xMidYMid meet">
<metadata>
Created by potrace 1.14, written by Peter Selinger 2001-2017
</metadata>
<g transform="translate(0.000000,752.000000) scale(0.100000,-0.100000)"
fill="#000000" stroke="none">
<path d="M1908 5401 c-75 -24 -115 -50 -172 -111 -59 -63 -96 -141 -107 -228
-12 -97 -11 -2570 1 -2657 6 -38 21 -92 34 -120 50 -108 165 -199 284 -224 38
-8 564 -11 1815 -11 1928 0 1818 -3 1930 57 61 34 133 112 163 178 13 28 28
82 34 120 12 88 13 2561 1 2659 -19 141 -121 276 -248 328 l-58 23 -1810 2
c-1725 2 -1813 1 -1867 -16z m261 -339 c88 -47 93 -180 9 -232 -26 -17 -45
-20 -87 -17 -47 3 -59 9 -88 40 -28 32 -33 44 -33 87 0 58 19 94 65 121 38 24
91 24 134 1z m432 -5 c79 -52 87 -141 19 -209 -33 -33 -43 -38 -85 -38 -135 0
-193 146 -93 236 45 41 108 45 159 11z m420 8 c90 -47 90 -193 0 -240 -91 -47
-201 17 -201 118 0 104 108 170 201 122z m2729 -1507 c0 -602 -4 -1030 -10
-1071 -18 -121 -84 -212 -189 -261 l-46 -21 -1745 0 -1745 0 -46 21 c-105 49
-171 140 -189 261 -6 41 -10 469 -10 1071 l0 1002 1990 0 1990 0 0 -1002z"/>
<path d="M2446 4028 c11 -13 148 -160 304 -328 156 -168 296 -319 312 -336
l29 -31 -302 -324 c-166 -178 -315 -339 -332 -356 l-31 -33 195 0 195 0 332
356 332 356 -53 58 c-28 32 -178 194 -332 359 l-280 300 -194 1 -194 0 19 -22z"/>
<path d="M3520 2740 l0 -120 620 0 620 0 0 120 0 120 -620 0 -620 0 0 -120z"/>
</g>
</svg>
