<?xml version="1.0" standalone="no"?>
<!DOCTYPE svg PUBLIC "-//W3C//DTD SVG 20010904//EN"
 "http://www.w3.org/TR/2001/REC-SVG-20010904/DTD/svg10.dtd">
<svg version="1.0" xmlns="http://www.w3.org/2000/svg"
 width="384.000000pt" height="384.000000pt" viewBox="0 0 384.000000 384.000000"
 preserveAspectRatio="xMidYMid meet">
<metadata>
Created by potrace 1.14, written by Peter Selinger 2001-2017
</metadata>
<g transform="translate(0.000000,384.000000) scale(0.100000,-0.100000)"
fill="#000000" stroke="none">
<path d="M895 2541 c-11 -5 -29 -19 -40 -31 -19 -21 -20 -38 -23 -403 -3 -419
2 -487 48 -584 77 -167 235 -253 461 -253 203 0 350 70 438 208 64 101 66 122
66 589 l0 423 -28 27 c-37 37 -105 40 -139 5 l-23 -23 -5 -417 c-5 -409 -5
-418 -28 -467 -44 -95 -113 -147 -221 -164 -154 -25 -285 37 -340 159 -20 43
-21 65 -21 435 0 397 -4 448 -39 479 -22 20 -78 29 -106 17z"/>
<path d="M2095 2536 c-32 -14 -55 -51 -55 -91 0 -20 193 -303 323 -473 37 -49
39 -56 27 -75 -7 -12 -84 -123 -172 -245 -87 -123 -165 -237 -174 -253 -35
-69 44 -148 118 -120 17 6 77 82 179 226 84 120 160 226 168 236 15 18 25 7
174 -204 86 -123 166 -232 178 -243 13 -12 36 -19 61 -19 33 0 45 6 69 33 52
58 57 48 -209 416 l-133 185 185 253 c103 139 189 263 192 276 9 33 -15 81
-49 98 -44 23 -90 11 -125 -34 -26 -34 -222 -314 -282 -404 -14 -21 -28 -38
-32 -38 -3 0 -79 105 -168 234 -183 264 -197 276 -275 242z"/>
</g>
</svg>
